<svg width="24" height="24" viewBox="0 0 24 24" fill="none" xmlns="http://www.w3.org/2000/svg">
<path d="M12 3.05859C13.2079 3.05859 14.3785 3.29484 15.4798 3.76078C16.5441 4.21113 17.5006 4.8559 18.3226 5.67744C19.1441 6.49898 19.7893 7.45547 20.2392 8.52023C20.7052 9.6215 20.9414 10.7925 20.9414 12C20.9414 13.2075 20.7052 14.3785 20.2392 15.4798C19.7889 16.5441 19.1441 17.5006 18.3226 18.3226C17.501 19.1441 16.5445 19.7893 15.4798 20.2392C14.3785 20.7052 13.2075 20.9414 12 20.9414C10.7925 20.9414 9.6215 20.7052 8.52023 20.2392C7.45588 19.7889 6.49939 19.1441 5.67744 18.3226C4.8559 17.501 4.21072 16.5445 3.76078 15.4798C3.29484 14.3785 3.05859 13.2075 3.05859 12C3.05859 10.7925 3.29484 9.6215 3.76078 8.52023C4.21113 7.45588 4.8559 6.49939 5.67744 5.67744C6.49898 4.8559 7.45547 4.21072 8.52023 3.76078C9.6215 3.29484 10.7925 3.05859 12 3.05859ZM12 1.5C6.20121 1.5 1.5 6.20121 1.5 12C1.5 17.7988 6.20121 22.5 12 22.5C17.7988 22.5 22.5 17.7992 22.5 12C22.5 6.2008 17.7988 1.5 12 1.5Z" fill="#FF8A00"/>
<path d="M14.9745 15.8004C14.7751 15.8004 14.5758 15.7245 14.4236 15.5723L11.4492 12.5979C11.3031 12.4519 11.2207 12.2533 11.2207 12.047V5.88525C11.2207 5.455 11.5697 5.10596 12 5.10596C12.4303 5.10596 12.7793 5.455 12.7793 5.88525V11.7238L15.5257 14.4702C15.83 14.7746 15.83 15.268 15.5257 15.5723C15.4534 15.6448 15.3676 15.7022 15.273 15.7413C15.1785 15.7805 15.0772 15.8005 14.9749 15.8004H14.9745Z" fill="#FF8A00"/>
</svg>
