<svg width="32" height="32" viewBox="0 0 32 32" fill="none" xmlns="http://www.w3.org/2000/svg">
<path d="M28.6292 21.1854L21.9203 18.161C21.6164 18.03 21.2847 17.9773 20.9554 18.0077C20.6261 18.0382 20.3095 18.1507 20.0343 18.3353C20.0064 18.3533 19.9798 18.3734 19.9548 18.3953L16.4484 21.3954C16.412 21.4153 16.3716 21.4265 16.3301 21.428C16.2887 21.4295 16.2475 21.4213 16.2098 21.404C13.956 20.3096 11.6213 17.9753 10.5292 15.7395C10.511 15.7021 10.5015 15.6611 10.5015 15.6195C10.5015 15.5779 10.511 15.5368 10.5292 15.4995L13.5215 11.9279C13.5429 11.9015 13.5629 11.8738 13.5811 11.845C13.762 11.5672 13.8713 11.2484 13.8991 10.9174C13.9268 10.5864 13.8722 10.2537 13.7402 9.94926L10.755 3.21187C10.5855 2.81415 10.2923 2.48247 9.91944 2.26661C9.54661 2.05075 9.11424 1.96235 8.68722 2.01468C6.83138 2.26011 5.12788 3.17692 3.89504 4.59378C2.66221 6.01063 1.98441 7.83058 1.9883 9.71353C1.9883 20.8997 11.0348 30 22.1547 30C24.0264 30.0036 25.8354 29.3217 27.2438 28.0815C28.6522 26.8414 29.5637 25.1279 29.8079 23.2612C29.8598 22.8336 29.7732 22.4006 29.5608 22.0266C29.3484 21.6526 29.0217 21.3576 28.6292 21.1854ZM22.1547 28.2856C11.9749 28.2856 3.6925 19.9539 3.6925 9.71353C3.68775 8.24766 4.2137 6.8302 5.17209 5.72597C6.13048 4.62175 7.45573 3.9063 8.90025 3.71331H8.93291C8.99014 3.71439 9.04571 3.73283 9.09234 3.76623C9.13897 3.79962 9.17448 3.84641 9.19422 3.90046L12.1908 10.6307C12.2079 10.6681 12.2167 10.7088 12.2167 10.75C12.2167 10.7912 12.2079 10.8319 12.1908 10.8693L9.1928 14.4494C9.17043 14.475 9.15002 14.5022 9.13173 14.5309C8.94414 14.8189 8.83367 15.1509 8.81103 15.4945C8.78839 15.8382 8.85434 16.1819 9.0025 16.4924C10.2622 19.0867 12.8611 21.6811 15.4685 22.9483C15.779 23.0965 16.1223 23.1613 16.465 23.1362C16.8078 23.1112 17.1382 22.9972 17.4241 22.8054C17.4511 22.7869 17.478 22.7669 17.5036 22.7454L21.0086 19.7453C21.0432 19.7266 21.0814 19.7157 21.1206 19.7132C21.1599 19.7107 21.1991 19.7168 21.2358 19.731L27.9461 22.7554C28.0009 22.7789 28.047 22.8191 28.0778 22.8704C28.1087 22.9217 28.1227 22.9814 28.1179 23.0412C27.9271 24.4949 27.2166 25.8291 26.1191 26.7943C25.0216 27.7594 23.6124 28.2896 22.1547 28.2856Z" fill="#FF8A00"/>
</svg>
