<svg width="200" height="52" viewBox="0 0 200 52" fill="none" xmlns="http://www.w3.org/2000/svg">
<path fill-rule="evenodd" clip-rule="evenodd" d="M5.36325 5.02385C12.0527 -1.67462 22.8985 -1.67462 29.588 5.02385C43.568 19.0226 26.8707 39.6763 17.4757 49.0839C8.08071 39.6763 -8.61653 19.0226 5.36347 5.02385H5.36325Z" fill="white"/>
<path fill-rule="evenodd" clip-rule="evenodd" d="M12.6607 48.6331C13.4143 48.388 14.2434 48.2256 15.0805 48.1251L14.3223 47.6265C11.8801 47.9977 10.1943 48.7868 10.1943 49.7002C10.1943 50.9706 13.4544 52.0003 17.4759 52.0003C21.4974 52.0003 24.7574 50.9706 24.7574 49.7002C24.7574 48.7868 23.0719 47.9979 20.6295 47.6265L19.8712 48.1251C20.7084 48.2254 21.5375 48.3878 22.291 48.6331C24.4678 49.3409 24.4678 50.0596 22.291 50.7677C20.8072 51.2501 19.0303 51.4119 17.4757 51.4119C15.921 51.4119 14.1441 51.2501 12.6603 50.7677C10.4837 50.0596 10.4837 49.3409 12.6603 48.6331H12.6607Z" fill="#FF8A00"/>
<path fill-rule="evenodd" clip-rule="evenodd" d="M15.7943 48.1118C14.4917 48.3594 13.5928 48.8855 13.5928 49.4943C13.5928 50.3411 15.3315 51.0277 17.4763 51.0277C19.6211 51.0277 21.3598 50.3411 21.3598 49.4943C21.3598 48.8852 20.4608 48.3594 19.1582 48.1118L18.1676 48.9259C18.7033 49.0277 19.0728 49.2439 19.0728 49.4943C19.0728 49.8423 18.358 50.1247 17.4761 50.1247C16.5941 50.1247 15.8793 49.8423 15.8793 49.4943C15.8793 49.2439 16.2488 49.0277 16.7845 48.9259L15.7939 48.1118H15.7943Z" fill="#FF8A00"/>
<g clip-path="url(#clip0_219_1802)">
<path fill-rule="evenodd" clip-rule="evenodd" d="M17.5025 8.30273C19.3167 8.30273 21.3217 8.82352 22.761 9.67479C23.9509 10.3758 24.6555 11.2922 25.422 12.4106C26.4011 13.841 26.9718 15.5536 26.9718 17.393C26.9718 18.8118 26.6321 20.1538 26.0279 21.3506C25.2363 22.918 24.5886 23.9579 22.9133 25.133C21.5476 26.0911 19.3167 26.4817 17.5025 26.4817C15.6883 26.4817 13.6699 26.2263 12.2055 25.3366C10.5821 24.3485 9.3905 22.9948 8.6357 21.2772C8.15872 20.1922 8.0332 18.6432 8.0332 17.393C8.0332 15.9793 8.30098 14.7908 8.90013 13.5973C9.55117 12.3021 10.5838 11.0268 11.7637 10.1622C13.357 8.99544 15.3452 8.30273 17.5008 8.30273H17.5025Z" fill="#201F1B"/>
<path d="M17.546 8.11406C19.3551 8.12074 21.1643 8.54971 22.7224 9.42269C23.4321 9.81995 24.063 10.3491 24.5986 10.9717C25.8069 12.3738 26.7358 14.0329 27.0554 15.859C27.3751 17.6851 27.109 19.6096 26.314 21.2788C25.7785 22.4022 25.1358 23.4938 24.2421 24.3534C23.7467 24.8291 23.2011 25.2665 22.6237 25.5936C21.6145 26.1645 20.4581 26.4499 19.2949 26.6051C18.1183 26.762 16.9217 26.7654 15.7401 26.6435C14.4381 26.5117 13.131 26.1995 12.0348 25.5285C10.485 24.5788 9.23313 23.1933 8.47164 21.5459C7.8909 20.2923 7.77542 18.8585 7.76872 17.4814C7.76035 16.0176 8.06662 14.5754 8.78628 13.2451C9.73187 11.4975 11.198 10.0286 13.0105 9.13225C14.4046 8.44289 15.9677 8.10238 17.5025 8.11406H17.546ZM17.4773 8.49129C14.8029 8.52635 12.1486 9.69476 10.3762 11.828C9.43899 12.9563 8.71766 14.2833 8.44151 15.7555C8.23064 16.8755 8.26244 18.0339 8.38963 19.1439C8.47499 19.8967 8.63231 20.6495 8.94527 21.3289C9.63982 22.8378 10.7729 24.1247 12.1737 25.0194C13.7586 26.0309 15.7368 26.2463 17.566 26.2396C19.084 26.2346 20.6304 26.0176 22.0011 25.3833C22.4396 25.1797 22.8446 24.9093 23.2329 24.6105C23.8856 24.1047 24.4647 23.5088 24.9266 22.8295C25.7467 21.6227 26.381 20.269 26.6287 18.8385C26.9784 16.8138 26.5684 14.6672 25.4873 12.8962C25.3299 12.6392 25.1592 12.3921 24.9852 12.1468C24.3241 11.2104 23.5559 10.3524 22.5266 9.77155C21.0103 8.91526 19.243 8.50298 17.5225 8.49296C17.5225 8.49296 17.5025 8.49296 17.4773 8.49296V8.49129Z" fill="#3C3B3B"/>
<path fill-rule="evenodd" clip-rule="evenodd" d="M13.3482 20.2807C14.1599 21.4792 15.1507 21.9265 16.518 22.0801C17.6862 22.2103 19.2075 22.1986 20.2736 21.4792C21.3882 20.7264 22.3137 19.5897 22.6016 18.4013C22.9129 17.1227 22.5196 15.7757 21.738 14.6239L21.6577 14.5054C21.082 13.6575 19.9924 13.0349 19.0837 12.701C17.6142 12.1602 16.1632 12.3438 14.7323 13.3086C13.862 13.8962 13.0955 14.649 12.7223 15.5386C12.1014 17.0142 12.3273 18.7785 13.2679 20.1639L13.3482 20.2824V20.2807Z" fill="#FF8A00"/>
<path d="M21.5413 20.3559C21.6217 19.8652 21.7189 19.2109 21.734 18.8103C21.791 17.2446 21.6452 15.6656 21.2514 14.1867C21.2313 14.1116 21.2112 14.0348 21.1895 13.958L21.2012 13.968H21.2029L21.2129 13.9797L21.2213 13.9881L21.2246 13.9914L21.2347 14.0014L21.2397 14.0064L21.2481 14.0131L21.2548 14.0198L21.2615 14.0264L21.2699 14.0348L21.2783 14.0431L21.2833 14.0481L21.29 14.0548L21.2967 14.0615L21.3051 14.0698L21.3168 14.0815L21.3235 14.0899L21.3302 14.0982L21.3369 14.1066L21.3486 14.1199L21.3553 14.1283L21.362 14.1349L21.3704 14.1433C21.3989 14.2535 21.3922 14.2217 21.3771 14.15C21.4425 14.2217 21.5044 14.2968 21.5631 14.372C21.5916 14.5122 21.6184 14.6541 21.6619 14.7893C22.1143 16.2297 22.1495 17.7704 21.9803 19.3077C21.9669 19.4212 21.8965 19.7183 21.8211 20.0021C21.7323 20.1223 21.6385 20.2391 21.5413 20.3526V20.3559Z" fill="#FFBF74"/>
<path d="M20.3077 21.4544C20.296 21.4627 20.2843 21.4711 20.2726 21.4777C20.1755 21.5445 20.0734 21.6046 19.968 21.658C20.2759 20.8385 20.3412 19.7335 20.373 18.8688C20.4299 17.3031 20.2843 15.7241 19.891 14.2452C19.7789 13.8213 19.5513 13.2287 19.332 12.7964C19.4391 12.8415 19.5496 12.8882 19.6584 12.9416C19.9078 13.5325 20.0935 14.292 20.3011 14.8511C20.8383 16.3033 20.7764 17.8423 20.619 19.3696C20.5554 19.9905 20.5186 20.7934 20.3077 21.4527V21.4544Z" fill="#FFBF74"/>
<path d="M18.3004 22.1118C18.21 22.1202 18.1197 22.1269 18.0293 22.1319C18.0762 22.035 18.118 21.9366 18.1682 21.8431C18.5849 21.0703 18.8293 19.8735 18.8594 18.8553C18.9063 17.2896 18.2954 13.4739 17.5322 12.3989C17.5975 12.3989 17.6644 12.4023 17.7297 12.4073C18.1833 13.11 18.5715 14.1916 18.7389 14.9861C19.0502 16.4617 19.1673 17.9823 19.0569 19.5046C18.9983 20.3058 18.7389 21.3423 18.3004 22.1102V22.1118Z" fill="#FFBF74"/>
<path d="M17.1107 22.1286C17.0137 22.1236 16.9199 22.1169 16.8262 22.1086C17.1408 21.2923 17.4086 20.2007 17.4404 19.3427C17.4973 17.7771 17.3517 16.198 16.9584 14.7191C16.7927 14.0949 16.4413 13.1985 16.0078 12.6527C16.0547 12.636 16.1032 12.6193 16.1501 12.6043C16.1953 12.646 16.2086 12.6594 16.1534 12.6043C16.1852 12.5943 16.217 12.5843 16.2488 12.5759L16.2689 12.611C16.6957 13.3437 17.1174 14.4971 17.3685 15.3251C17.7885 16.7071 17.8772 18.2528 17.6864 19.8435C17.6044 20.5262 17.4555 21.4726 17.1107 22.1286Z" fill="#FFBF74"/>
<path d="M15.9157 21.9866C15.8253 21.9682 15.7383 21.9482 15.6512 21.9265C15.8404 21.2071 15.9408 20.2857 15.9659 19.5963C16.0228 18.0306 15.8772 16.4516 15.4839 14.9727C15.36 14.507 15.0471 13.811 14.7441 13.2985C14.8094 13.2551 14.873 13.2134 14.9383 13.1733C15.3533 13.8777 15.7433 14.8625 15.8956 15.5786C16.2069 17.0542 16.324 18.5748 16.2136 20.0971C16.1751 20.6329 16.0797 21.4074 15.9157 21.9866Z" fill="#FFBF74"/>
<path d="M14.6469 21.5293C14.5649 21.4826 14.4845 21.4308 14.4042 21.3774C14.4929 20.8616 14.5029 20.2774 14.518 19.8418C14.5749 18.2761 14.4293 16.6971 14.036 15.2182C13.9791 15.0062 13.79 14.5989 13.6143 14.23C13.6712 14.1716 13.7281 14.1149 13.7883 14.0581C14.0394 14.6457 14.3306 15.3868 14.446 15.8241C14.836 17.2963 14.9046 18.8186 14.764 20.3425C14.7356 20.6513 14.6954 21.1654 14.6452 21.5293H14.6469Z" fill="#FFBF74"/>
<path d="M13.4599 20.4392C13.4214 20.3874 13.3845 20.3357 13.3477 20.2806L13.2673 20.1621C13.2421 20.1237 13.217 20.087 13.1919 20.0486C13.16 19.0304 12.8886 17.6834 12.7546 16.52C12.7244 16.2496 12.6859 15.9875 12.6406 15.7371C12.6658 15.6704 12.6909 15.6036 12.7194 15.5368C12.7512 15.46 12.7864 15.3849 12.8249 15.3098C12.8467 15.4066 12.8668 15.5034 12.8886 15.5986C13.1684 16.9239 13.4817 18.9469 13.4583 20.4392H13.4599Z" fill="#FFBF74"/>
</g>
<path d="M187.207 12.3113H181.236V6.15553H200V12.3113H193.997V28.8346H187.207V12.3113Z" fill="#FF8A00"/>
<path d="M165.243 21.6744L156.878 6.15552H164.324L169.114 15.3243L173.509 6.15552H180.759L174.067 20.0221C172.58 23.1324 170.94 25.3895 169.147 26.7934C167.397 28.1542 165.254 28.8345 162.717 28.8345H160.749V22.6788H162.159C163.406 22.6788 164.434 22.344 165.243 21.6744Z" fill="#FF8A00"/>
<path d="M143.606 12.3113H137.636V6.15553H156.4V12.3113H150.397V28.8346H143.606V12.3113Z" fill="#FF8A00"/>
<path d="M129.121 28.8345H122.331V6.15551H129.121V28.8345Z" fill="#FF8A00"/>
<path d="M89.9429 28.8346V6.15553H96.7333V22.6788H101.654V6.15553H108.444V22.6788H113.89V6.15553H120.68V28.8346H89.9429Z" fill="#FF8A00"/>
<path d="M73.6214 21.6745L65.2563 6.15553H72.7029L77.4923 15.3243L81.8881 6.15553H89.1378L82.4458 20.0221C80.9586 23.1324 79.3184 25.3895 77.5251 26.7934C75.7756 28.1542 73.6323 28.8346 71.0955 28.8346H69.1272V22.6788H70.5378C71.7844 22.6788 72.8122 22.344 73.6214 21.6745Z" fill="#FF8A00"/>
<path d="M54.9219 5.83154C57.5025 5.83154 59.7879 6.45792 61.778 7.71066C63.79 8.92021 65.2772 10.5617 66.2394 12.6353L59.613 15.0327C59.1974 14.1904 58.5742 13.5208 57.7431 13.024C56.9121 12.5057 55.9717 12.2465 54.9219 12.2465C53.4786 12.2465 52.2648 12.754 51.2807 13.7692C50.2965 14.7844 49.8045 16.0155 49.8045 17.4626C49.8045 18.953 50.2856 20.2057 51.2479 21.2209C52.232 22.2144 53.4567 22.7112 54.9219 22.7112C55.9717 22.7112 56.9121 22.4628 57.7431 21.966C58.5742 21.4693 59.1974 20.7997 59.613 19.9573L66.2394 22.3548C65.299 24.3851 63.8119 26.0375 61.778 27.3118C59.7879 28.543 57.5025 29.1585 54.9219 29.1585C51.4447 29.1585 48.547 28.0462 46.2288 25.8215C43.8888 23.5752 42.7188 20.7997 42.7188 17.495C42.7188 14.212 43.8888 11.4473 46.2288 9.201C48.5688 6.95469 51.4666 5.83154 54.9219 5.83154Z" fill="#FF8A00"/>
<path d="M196.521 37.3936C197.266 37.3936 197.941 37.5725 198.547 37.9303C199.161 38.2808 199.643 38.7663 199.994 39.387L199.029 39.7485C198.767 39.3103 198.416 38.9671 197.978 38.7189C197.539 38.4706 197.054 38.3465 196.521 38.3465C195.681 38.3465 194.983 38.6349 194.428 39.2118C193.866 39.7886 193.584 40.5006 193.584 41.3476C193.584 42.1947 193.866 42.9103 194.428 43.4944C194.99 44.064 195.688 44.3488 196.521 44.3488C197.054 44.3488 197.539 44.2246 197.978 43.9764C198.416 43.7281 198.767 43.3849 199.029 42.9468L199.994 43.3082C199.643 43.9289 199.161 44.4181 198.547 44.7759C197.941 45.1264 197.266 45.3017 196.521 45.3017C195.388 45.3017 194.446 44.9256 193.694 44.1735C192.942 43.4214 192.565 42.4794 192.565 41.3476C192.565 40.2231 192.942 39.2848 193.694 38.5327C194.454 37.7733 195.396 37.3936 196.521 37.3936Z" fill="white"/>
<path d="M190.273 45.1808H189.287V37.5137H190.273V45.1808Z" fill="white"/>
<path d="M181.162 45.1808H180.176V37.5137H181.162V40.8434H185.709V37.5137H186.706V45.1808H185.709V41.7635H181.162V45.1808Z" fill="white"/>
<path d="M171.927 45.1808H171.028V37.5137H172.014V43.505L176.693 37.5137H177.591V45.1808H176.594V39.2224L171.927 45.1808Z" fill="white"/>
<path d="M166.434 45.1808H162.577V37.5137H166.215C166.828 37.5137 167.347 37.7072 167.77 38.0942C168.194 38.4739 168.406 38.9485 168.406 39.5181C168.406 40.2118 168.117 40.7485 167.54 41.1282C167.92 41.3034 168.219 41.5627 168.439 41.9059C168.665 42.2417 168.778 42.6178 168.778 43.034C168.778 43.6401 168.552 44.1512 168.099 44.5674C167.646 44.9764 167.091 45.1808 166.434 45.1808ZM166.434 41.6539H163.563V44.2608H166.434C166.806 44.2608 167.117 44.1366 167.365 43.8884C167.621 43.6401 167.748 43.3298 167.748 42.9573C167.748 42.5995 167.621 42.2929 167.365 42.0373C167.109 41.7817 166.799 41.6539 166.434 41.6539ZM166.215 38.4337H163.563V40.7339H166.215C166.551 40.7339 166.828 40.6243 167.047 40.4053C167.274 40.1862 167.387 39.9124 167.387 39.5838C167.387 39.2552 167.274 38.9814 167.047 38.7623C166.828 38.5433 166.551 38.4337 166.215 38.4337Z" fill="white"/>
<path d="M153.502 38.5327C154.262 37.7733 155.204 37.3936 156.329 37.3936C157.454 37.3936 158.396 37.7733 159.156 38.5327C159.915 39.2921 160.295 40.2304 160.295 41.3476C160.295 42.4721 159.915 43.4141 159.156 44.1735C158.403 44.9256 157.461 45.3017 156.329 45.3017C155.197 45.3017 154.255 44.9256 153.502 44.1735C152.75 43.4214 152.374 42.4794 152.374 41.3476C152.374 40.2231 152.75 39.2848 153.502 38.5327ZM154.237 43.4944C154.799 44.064 155.496 44.3488 156.329 44.3488C157.162 44.3488 157.859 44.064 158.422 43.4944C158.984 42.9103 159.265 42.1947 159.265 41.3476C159.265 40.5006 158.984 39.7886 158.422 39.2118C157.867 38.6349 157.169 38.3465 156.329 38.3465C155.489 38.3465 154.792 38.6349 154.237 39.2118C153.674 39.7886 153.393 40.5006 153.393 41.3476C153.393 42.1947 153.674 42.9103 154.237 43.4944Z" fill="white"/>
<path d="M142.927 45.1808H141.941V37.5137H142.927L146.017 42.9026L149.096 37.5137H150.082V45.1808H149.096V39.3866L146.335 44.2279H145.688L142.927 39.3976V45.1808Z" fill="white"/>
<path d="M133.538 45.1808H132.497L135.861 37.5137H136.66L140.024 45.1808H138.983L138.238 43.4612H134.283L133.538 45.1808ZM137.833 42.5411L136.266 38.9266L134.688 42.5411H137.833Z" fill="white"/>
<path d="M127.596 37.3936C128.341 37.3936 129.016 37.5725 129.623 37.9303C130.236 38.2808 130.718 38.7663 131.069 39.387L130.105 39.7485C129.842 39.3103 129.491 38.9671 129.053 38.7189C128.615 38.4706 128.129 38.3465 127.596 38.3465C126.756 38.3465 126.058 38.6349 125.503 39.2118C124.941 39.7886 124.66 40.5006 124.66 41.3476C124.66 42.1947 124.941 42.9103 125.503 43.4944C126.066 44.064 126.763 44.3488 127.596 44.3488C128.129 44.3488 128.615 44.2246 129.053 43.9764C129.491 43.7281 129.842 43.3849 130.105 42.9468L131.069 43.3082C130.718 43.9289 130.236 44.4181 129.623 44.7759C129.016 45.1264 128.341 45.3017 127.596 45.3017C126.464 45.3017 125.521 44.9256 124.769 44.1735C124.017 43.4214 123.641 42.4794 123.641 41.3476C123.641 40.2231 124.017 39.2848 124.769 38.5327C125.529 37.7733 126.471 37.3936 127.596 37.3936Z" fill="white"/>
<path d="M117.618 47.0982H116.828V36.4189H117.618V47.0982Z" fill="white"/>
<path d="M104.698 45.1808H103.657L107.021 37.5137H107.82L111.184 45.1808H110.143L109.398 43.4612H105.443L104.698 45.1808ZM108.993 42.5411L107.426 38.9266L105.848 42.5411H108.993Z" fill="white"/>
<path d="M102.414 45.1808H101.143L97.5386 41.2706L100.924 37.5137H102.195L98.8095 41.2706L102.414 45.1808ZM96.4102 45.1808V37.5137H97.3962V45.1808H96.4102Z" fill="white"/>
<path d="M91.8135 45.1808H87.957V37.5137H91.5944C92.208 37.5137 92.7265 37.7072 93.1502 38.0942C93.5738 38.4739 93.7856 38.9485 93.7856 39.5181C93.7856 40.2118 93.4971 40.7485 92.9201 41.1282C93.2999 41.3034 93.5994 41.5627 93.8185 41.9059C94.0449 42.2417 94.1581 42.6178 94.1581 43.034C94.1581 43.6401 93.9317 44.1512 93.4788 44.5674C93.026 44.9764 92.4709 45.1808 91.8135 45.1808ZM91.8135 41.6539H88.9431V44.2608H91.8135C92.186 44.2608 92.4965 44.1366 92.7448 43.8884C93.0004 43.6401 93.1283 43.3298 93.1283 42.9573C93.1283 42.5995 93.0004 42.2929 92.7448 42.0373C92.4892 41.7817 92.1787 41.6539 91.8135 41.6539ZM91.5944 38.4337H88.9431V40.7339H91.5944C91.9304 40.7339 92.208 40.6243 92.4271 40.4053C92.6535 40.1862 92.7667 39.9124 92.7667 39.5838C92.7667 39.2552 92.6535 38.9814 92.4271 38.7623C92.208 38.5433 91.9304 38.4337 91.5944 38.4337Z" fill="white"/>
<path d="M79.5564 45.1808H78.5156L81.8791 37.5137H82.6789L86.0424 45.1808H85.0016L84.2566 43.4612H80.3014L79.5564 45.1808ZM83.8512 42.5411L82.2845 38.9266L80.7068 42.5411H83.8512Z" fill="white"/>
<path d="M74.2972 38.4337H71.4268V37.5137H78.1537V38.4337H75.2833V45.1808H74.2972V38.4337Z" fill="white"/>
<path d="M66.5606 37.3936C67.3056 37.3936 67.9812 37.5725 68.5874 37.9303C69.201 38.2808 69.683 38.7663 70.0336 39.387L69.0695 39.7485C68.8066 39.3103 68.456 38.9671 68.0177 38.7189C67.5795 38.4706 67.0938 38.3465 66.5606 38.3465C65.7206 38.3465 65.0231 38.6349 64.468 39.2118C63.9056 39.7886 63.6244 40.5006 63.6244 41.3476C63.6244 42.1947 63.9056 42.9103 64.468 43.4944C65.0304 44.064 65.7279 44.3488 66.5606 44.3488C67.0938 44.3488 67.5795 44.2246 68.0177 43.9764C68.456 43.7281 68.8066 43.3849 69.0695 42.9468L70.0336 43.3082C69.683 43.9289 69.201 44.4181 68.5874 44.7759C67.9812 45.1264 67.3056 45.3017 66.5606 45.3017C65.4285 45.3017 64.4862 44.9256 63.7339 44.1735C62.9816 43.4214 62.6055 42.4794 62.6055 41.3476C62.6055 40.2231 62.9816 39.2848 63.7339 38.5327C64.4936 37.7733 65.4358 37.3936 66.5606 37.3936Z" fill="white"/>
<path d="M53.8296 38.5327C54.5893 37.7733 55.5315 37.3936 56.6563 37.3936C57.7811 37.3936 58.7233 37.7733 59.4829 38.5327C60.2425 39.2921 60.6223 40.2304 60.6223 41.3476C60.6223 42.4721 60.2425 43.4141 59.4829 44.1735C58.7306 44.9256 57.7884 45.3017 56.6563 45.3017C55.5242 45.3017 54.5819 44.9256 53.8296 44.1735C53.0773 43.4214 52.7012 42.4794 52.7012 41.3476C52.7012 40.2231 53.0773 39.2848 53.8296 38.5327ZM54.5637 43.4944C55.1261 44.064 55.8236 44.3488 56.6563 44.3488C57.4889 44.3488 58.1865 44.064 58.7489 43.4944C59.3113 42.9103 59.5925 42.1947 59.5925 41.3476C59.5925 40.5006 59.3113 39.7886 58.7489 39.2118C58.1938 38.6349 57.4962 38.3465 56.6563 38.3465C55.8163 38.3465 55.1188 38.6349 54.5637 39.2118C54.0013 39.7886 53.7201 40.5006 53.7201 41.3476C53.7201 42.1947 54.0013 42.9103 54.5637 43.4944Z" fill="white"/>
<path d="M43.7409 47.0431H42.7549V44.261H43.6204C44.2559 44.0566 44.5736 43.0598 44.5736 41.2708V37.5139H50.0735V44.261H51.3334V47.0431H50.3474V45.1811H43.7409V47.0431ZM44.9351 44.261H49.0765V38.434H45.5596V41.227C45.5596 42.5779 45.3515 43.5892 44.9351 44.261Z" fill="white"/>
<defs>
<clipPath id="clip0_219_1802">
<rect width="19.4175" height="19.4392" fill="white" transform="translate(7.76855 7.28955)"/>
</clipPath>
</defs>
</svg>
