<svg width="24" height="24" viewBox="0 0 24 24" fill="none" xmlns="http://www.w3.org/2000/svg">
<path d="M22.0996 16.389L17.038 14.1207C16.8087 14.0225 16.5585 13.983 16.31 14.0058C16.0615 14.0286 15.8227 14.1131 15.6151 14.2515C15.594 14.265 15.574 14.28 15.5551 14.2965L12.9097 16.5465C12.8822 16.5615 12.8517 16.5699 12.8204 16.571C12.7892 16.5721 12.7581 16.5659 12.7297 16.553C11.0292 15.7322 9.26776 13.9814 8.4438 12.3046C8.43008 12.2766 8.42295 12.2458 8.42295 12.2146C8.42295 12.1834 8.43008 12.1526 8.4438 12.1246L10.7014 9.44592C10.7176 9.4261 10.7326 9.40535 10.7464 9.38378C10.8829 9.17538 10.9653 8.93628 10.9863 8.68804C11.0072 8.43981 10.966 8.19027 10.8664 7.96194L8.61416 2.9089C8.48626 2.61061 8.26507 2.36185 7.98378 2.19996C7.70249 2.03806 7.37628 1.97176 7.05411 2.01101C5.65395 2.19508 4.36871 2.88269 3.43858 3.94533C2.50846 5.00797 1.99708 6.37294 2.00001 7.78515C2.00001 16.1747 8.82524 23 17.2148 23C18.627 23.0027 19.9918 22.4912 21.0544 21.5611C22.117 20.6311 22.8046 19.346 22.9889 17.9459C23.0281 17.6252 22.9627 17.3005 22.8025 17.02C22.6422 16.7395 22.3957 16.5182 22.0996 16.389ZM17.2148 21.7142C9.53455 21.7142 3.28577 15.4654 3.28577 7.78515C3.28219 6.68575 3.679 5.62265 4.40207 4.79448C5.12514 3.96631 6.125 3.42973 7.21483 3.28499H7.23947C7.28265 3.28579 7.32458 3.29962 7.35976 3.32467C7.39494 3.34972 7.42173 3.38481 7.43662 3.42535L9.69741 8.47303C9.71031 8.5011 9.71698 8.53161 9.71698 8.5625C9.71698 8.59338 9.71031 8.6239 9.69741 8.65197L7.43555 11.3371C7.41868 11.3562 7.40328 11.3766 7.38948 11.3981C7.24794 11.6142 7.1646 11.8632 7.14752 12.1209C7.13044 12.3786 7.18019 12.6364 7.29198 12.8693C8.24237 14.815 10.2031 16.7608 12.1704 17.7112C12.4046 17.8224 12.6636 17.8709 12.9222 17.8522C13.1808 17.8334 13.4301 17.7479 13.6458 17.6041C13.6661 17.5901 13.6865 17.5751 13.7058 17.5591L16.3501 15.309C16.3763 15.295 16.4051 15.2867 16.4347 15.2849C16.4643 15.283 16.4939 15.2876 16.5216 15.2983L21.5842 17.5666C21.6256 17.5842 21.6604 17.6144 21.6836 17.6528C21.7069 17.6913 21.7175 17.7361 21.7139 17.7809C21.5699 18.8712 21.0338 19.8718 20.2058 20.5957C19.3779 21.3196 18.3146 21.7172 17.2148 21.7142Z" fill="#FF8A00"/>
</svg>
