<svg width="24" height="24" viewBox="0 0 24 24" fill="none" xmlns="http://www.w3.org/2000/svg">
<path d="M12 22.5C10.1402 22.5 4.125 13.8506 4.125 9.41766C4.125 5.05228 7.65759 1.5 12 1.5C16.3424 1.5 19.875 5.05228 19.875 9.41766C19.875 13.8506 13.8598 22.5 12 22.5ZM12 2.8125C8.38144 2.8125 5.4375 5.77547 5.4375 9.41766C5.4375 13.4129 10.7361 20.5522 12 21.1672C13.2639 20.5522 18.5625 13.4129 18.5625 9.41766C18.5625 5.77547 15.6186 2.8125 12 2.8125ZM12 12.7527C10.1907 12.7527 8.71875 11.2808 8.71875 9.47147C8.71875 7.66219 10.1907 6.19022 12 6.19022C13.8093 6.19022 15.2812 7.66284 15.2812 9.47147C15.2812 11.2801 13.8093 12.7527 12 12.7527ZM12 7.50272C10.9146 7.50272 10.0312 8.38603 10.0312 9.47147C10.0312 10.5569 10.9146 11.4402 12 11.4402C13.0854 11.4402 13.9688 10.5576 13.9688 9.47147C13.9688 8.38538 13.0854 7.50272 12 7.50272Z" fill="#FF8A00"/>
</svg>
